<svg width="16" height="16" viewBox="0 0 16 16" fill="none" xmlns="http://www.w3.org/2000/svg">
<path fill-rule="evenodd" clip-rule="evenodd" d="M4 1C2.89543 1 2 1.89543 2 3V7C2 7.55228 2.44772 8 3 8C3.55228 8 4 7.55228 4 7V3H8V8H12V13H9C8.44772 13 8 13.4477 8 14C8 14.5523 8.44772 15 9 15H12C13.1046 15 14 14.1046 14 13V5.80431C14 5.31986 13.8242 4.85188 13.5052 4.4873L11.0514 1.68299C10.6716 1.24896 10.123 1 9.54623 1H4ZM10 3.51859V6H12V5.80431L10 3.51859Z" fill="#999999"/>
<path d="M4 9C4.55228 9 5 9.44771 5 10V11H6C6.55228 11 7 11.4477 7 12C7 12.5523 6.55228 13 6 13H5V14C5 14.5523 4.55228 15 4 15C3.44772 15 3 14.5523 3 14V13H2C1.44772 13 1 12.5523 1 12C1 11.4477 1.44772 11 2 11H3V10C3 9.44771 3.44772 9 4 9Z" fill="#999999"/>
</svg>
