<svg width="16" height="16" viewBox="0 0 16 16" fill="none" xmlns="http://www.w3.org/2000/svg">
<g opacity="0.5">
<path fill-rule="evenodd" clip-rule="evenodd" d="M8 1C8.55229 1 9 1.44772 9 2L9 7.72872L10.2861 6.41744C10.6728 6.02314 11.3059 6.017 11.7002 6.40371C12.0945 6.79042 12.1007 7.42356 11.7139 7.81786L8.71394 10.8767C8.52587 11.0684 8.26858 11.1765 8 11.1765C7.73142 11.1765 7.47413 11.0684 7.28606 10.8767L4.28606 7.81786C3.89935 7.42356 3.90549 6.79042 4.29979 6.40371C4.69409 6.01699 5.32722 6.02314 5.71394 6.41744L7 7.72872L7 2C7 1.44772 7.44772 1 8 1ZM1 8.41177C1.55228 8.41177 2 8.85948 2 9.41176V12.4706C2 12.7814 2.24207 13 3.5 13H13.5C13.7579 13 14 12.7814 14 12.4706V9.41176C14 8.85948 14.4477 8.41177 15 8.41177C15.5523 8.41177 16 8.85948 16 9.41176V12.4706C16 13.8491 14.8989 15 13.5 15H3.5C1.10107 15 0 13.8491 0 12.4706V9.41176C0 8.85948 0.447715 8.41177 1 8.41177Z" fill="white"/>
</g>
</svg>
